<?xml version="1.0" encoding="utf-8"?>
<!DOCTYPE svg PUBLIC "-//W3C//DTD SVG 1.1//EN" "http://www.w3.org/Graphics/SVG/1.1/DTD/svg11.dtd">
<svg xmlns="http://www.w3.org/2000/svg" xmlns:xlink="http://www.w3.org/1999/xlink" version="1.1" baseProfile="full" width="1035.43" height="686.663" viewBox="0 0 1035.43 686.66" enable-background="new 0 0 1035.43 686.66" xml:space="preserve">
	<path fill="#9CA301" fill-opacity="1" stroke-width="0.998317" stroke-linejoin="round" stroke="#000000" stroke-opacity="1" d="M 149.961,607.341C 149.961,607.341 504.138,349.075 938.017,633.257L 937.057,661.094C 937.057,661.094 560.459,379.996 150.239,635.309L 149.961,607.341 Z "/>
	<path fill="#18502F" fill-opacity="1" stroke-width="0.998317" stroke-linejoin="round" stroke="#000000" stroke-opacity="1" d="M 150.239,634.349L 80.3937,597.562L 80.8046,567.794L 150.239,606.511L 150.239,634.349 Z "/>
	<path fill="#18502F" fill-opacity="1" stroke-width="0.998317" stroke-linejoin="round" stroke="#000000" stroke-opacity="1" d="M 937.359,632.874L 991.754,582.639L 990.474,610.796L 937.039,659.432L 937.359,632.874 Z "/>
	<path fill="#18502F" fill-opacity="1" stroke-width="0.998317" stroke-linejoin="round" stroke="#000000" stroke-opacity="1" d="M 937.785,632.555L 991.754,581.999C 991.754,581.999 512.357,240.373 80.1804,567.271L 149.584,606.743C 149.584,606.743 502.211,349.583 937.785,632.555 Z "/>
	<path fill="#CB1C1A" fill-opacity="1" stroke-width="0.998317" stroke-linejoin="round" stroke="#000000" stroke-opacity="1" d="M 925.258,288.117L 922.934,481.143L 886.244,521.14L 886.434,303.903L 925.258,288.117 Z "/>
	<path fill="#CB1C1A" fill-opacity="1" stroke-width="0.998317" stroke-linejoin="round" stroke="#000000" stroke-opacity="1" d="M 102.096,292.602C 102.096,292.602 394.657,158.112 925.388,288.442L 886.35,303.801C 886.35,303.801 488.724,181.149 141.879,307.214L 102.096,292.602 Z "/>
	<path fill="#CB1C1A" fill-opacity="1" stroke-width="0.998317" stroke-linejoin="round" stroke="#000000" stroke-opacity="1" d="M 142.281,307.084L 102.177,293.005L 103.835,488.024C 103.835,488.024 143.672,522.581 146.232,522.582C 148.792,522.582 141.854,308.364 142.281,307.084 Z "/>
	<path fill="#FF0000" fill-opacity="1" stroke-width="0.998317" stroke-linejoin="round" stroke="#000000" stroke-opacity="1" d="M 145.752,522.582L 142.39,307.404C 142.39,307.404 447.453,178.909 886.648,304.205L 886.244,521.354C 886.244,521.354 526.381,328.09 145.752,522.582 Z "/>
	<path fill="#C49F18" fill-opacity="1" stroke-linejoin="round" stroke="#000000" stroke-opacity="1" d="M 375.966,3.40662C 376.533,1.526 400.924,22.605 518.674,36.6839C 518.674,36.684 548.112,76.3606 657.543,143.555C 657.543,143.555 574.989,148.675 530.833,169.793C 530.833,169.793 431.641,97.4794 375.966,3.40662 Z "/>
	<g>
		<filter id="Filter_DropShadow1_" filterUnits="userSpaceOnUse">
			<feGaussianBlur in="SourceAlpha" stdDeviation="2" result="blur"/>
			<feOffset dx="2.51969" dy="2.51969" in="blur" result="offsetBlurredAlpha"/>
			<feMerge>
				<feMergeNode in="offsetBlurredAlpha"/>
				<feMergeNode in="SourceGraphic"/>
			</feMerge>
		</filter>
		<path fill="#706CF5" fill-opacity="1" stroke-width="0.998317" stroke-linejoin="round" stroke="#000000" stroke-opacity="1" filter="url(#Filter_DropShadow1_)" d="M 540.125,174.613C 644.334,174.613 715.142,245.661 715.142,350.221L 715.142,421.349L 715.007,429.209C 711.543,529.454 641.701,596.957 540.125,596.957L 470.695,596.957C 366.486,596.957 295.678,528.195 295.678,423.635L 295.678,347.935C 295.678,246.497 362.321,178.752 461.45,174.796L 470.695,174.613L 540.125,174.613 Z "/>
		<g>
			<path fill="#FFFFFF" fill-opacity="0.603922" stroke-width="0.998317" stroke-linejoin="round" stroke="#000000" stroke-opacity="0.603922" d="M 566.205,478.182C 548.771,489.756 527.87,496.495 505.401,496.495C 462.146,496.495 424.704,471.521 406.618,435.158C 397.484,430.328 389.113,425.285 381.634,420.126C 396.611,474.597 446.35,514.601 505.401,514.601C 540.465,514.601 572.247,500.496 595.416,477.632C 586.369,478.39 576.577,478.579 566.205,478.182 Z "/>
			<path fill="#FFFFFF" fill-opacity="0.603922" stroke-width="0.998317" stroke-linejoin="round" stroke="#000000" stroke-opacity="0.603922" d="M 397.446,408.767C 390.023,404.205 383.286,399.514 377.329,394.765C 355.233,377.15 343.878,358.735 348.119,343.102C 352.348,327.512 371.343,317.425 399.16,313.453C 422.257,279.366 461.223,256.976 505.401,256.976C 573.482,256.976 629.186,310.151 633.51,377.366C 655.598,394.978 666.947,413.389 662.707,429.02C 658.456,444.691 639.284,454.802 611.229,458.729C 603.684,459.786 595.495,460.395 586.782,460.545C 558.378,461.033 524.393,456.64 488.896,446.945C 453.303,437.224 421.712,423.681 397.446,408.767 Z M 601.024,441.056C 610.275,424.978 615.613,406.348 615.733,386.477L 615.735,385.789C 615.735,324.647 566.337,275.081 505.401,275.081C 464.887,275.081 429.473,296.991 410.286,329.646C 400.628,346.083 395.082,365.243 395.066,385.702C 418.051,401.136 452.786,416.355 492.967,427.329C 534.441,438.656 573.199,443.134 601.024,441.056 Z M 623.072,437.371C 634.138,434.112 641.272,428.958 643.172,421.957C 645.104,414.833 641.398,406.601 633.21,398.002L 633.039,399.709C 631.619,412.97 628.193,425.627 623.072,437.371 Z M 388.73,331.97L 389.659,329.989C 376.606,333.212 368.273,338.658 366.196,346.312C 364.142,353.886 368.46,362.711 377.759,371.898C 379.268,357.781 383.05,344.346 388.73,331.97 Z "/>
		</g>
	</g>
	<g>
		<path fill="#F7CD33" fill-opacity="1" stroke-width="1.59987" stroke-linejoin="round" stroke="#000000" stroke-opacity="1" d="M 208.766,317.8L 219.148,362.038L 210.999,363.951L 203.85,333.488L 200.215,357.391L 191.453,359.447L 177.506,339.671L 184.655,370.133L 176.623,372.018L 166.241,327.78L 176.337,325.411L 194.092,350.734L 198.544,320.199L 208.766,317.8 Z "/>
		<path fill="#F7CD33" fill-opacity="1" stroke-width="1.59987" stroke-linejoin="round" stroke="#000000" stroke-opacity="1" d="M 219.98,315.574L 228.432,313.83L 237.614,358.333L 229.162,360.077L 219.98,315.574 Z "/>
		<path fill="#F7CD33" fill-opacity="1" stroke-width="1.59987" stroke-linejoin="round" stroke="#000000" stroke-opacity="1" d="M 275.175,324.512L 279.391,347.438C 277.913,348.876 276.032,350.118 273.747,351.165C 271.462,352.212 269.028,352.974 266.444,353.449C 259.77,354.676 254.24,353.624 249.855,350.292C 245.47,346.96 242.605,341.639 241.261,334.328C 239.917,327.017 240.701,321.025 243.614,316.351C 246.526,311.677 251.32,308.726 257.995,307.499C 260.617,307.017 263.133,306.874 265.542,307.072C 267.951,307.27 270.038,307.782 271.803,308.61L 270.573,315.74C 266.383,314.633 262.61,314.388 259.253,315.005C 251.182,316.489 248.096,322.395 249.995,332.722C 251.894,343.049 256.918,347.463 265.068,345.964C 266.707,345.663 268.371,345.146 270.06,344.416L 268.064,333.558L 260.746,334.903L 259.37,327.419L 275.175,324.512 Z "/>
		<path fill="#F7CD33" fill-opacity="1" stroke-width="1.59987" stroke-linejoin="round" stroke="#000000" stroke-opacity="1" d="M 315.146,298.842L 322.014,343.76L 313.483,345.064L 310.57,326.016L 293.766,328.585L 296.678,347.634L 288.157,348.937L 281.289,304.019L 289.81,302.716L 292.615,321.063L 309.42,318.493L 306.615,300.146L 315.146,298.842 Z "/>
		<path fill="#F7CD33" fill-opacity="1" stroke-width="1.59987" stroke-linejoin="round" stroke="#000000" stroke-opacity="1" d="M 354.172,301.538L 343.009,302.938L 347.717,340.474L 339.154,341.548L 334.447,304.012L 323.284,305.412L 322.337,297.861L 342.063,295.387L 353.225,293.987L 354.172,301.538 Z "/>
		<path fill="#F7CD33" fill-opacity="1" stroke-width="1.59987" stroke-linejoin="round" stroke="#000000" stroke-opacity="1" d="M 391.484,290.076L 381.115,321.902L 382.596,336.638L 374.009,337.501L 372.528,322.765L 356.162,293.626L 365.306,292.707L 376.016,313.068L 382.4,290.989L 391.484,290.076 Z "/>
		<path fill="#F7CD33" fill-opacity="1" stroke-width="1.59987" stroke-linejoin="round" stroke="#000000" stroke-opacity="1" d="M 640.649,290.03L 637.216,335.34L 628.87,334.708L 631.234,303.507L 620.565,325.203L 611.59,324.523L 604.251,301.463L 601.888,332.664L 593.661,332.04L 597.094,286.73L 607.434,287.514L 616.732,317.01L 630.179,289.237L 640.649,290.03 Z "/>
		<path fill="#F7CD33" fill-opacity="1" stroke-width="1.59987" stroke-linejoin="round" stroke="#000000" stroke-opacity="1" d="M 664.558,339.027C 658.306,338.303 653.76,335.802 650.92,331.523C 648.08,327.245 647.105,321.268 647.993,313.592C 648.882,305.917 651.198,300.321 654.94,296.805C 658.683,293.289 663.68,291.893 669.932,292.617C 676.177,293.34 680.719,295.841 683.559,300.119C 686.399,304.397 687.375,310.374 686.486,318.05C 685.597,325.725 683.282,331.321 679.539,334.837C 675.797,338.353 670.803,339.75 664.558,339.027 Z M 665.433,331.467C 672.387,332.272 676.467,327.46 677.675,317.029C 678.883,306.599 676.01,300.981 669.056,300.176C 662.103,299.371 658.022,304.184 656.814,314.614C 655.607,325.044 658.48,330.662 665.433,331.467 Z "/>
		<path fill="#F7CD33" fill-opacity="1" stroke-width="1.59987" stroke-linejoin="round" stroke="#000000" stroke-opacity="1" d="M 707.967,328.591L 702.59,327.767L 700.251,343.019L 691.731,341.712L 698.619,296.797L 707.139,298.104L 714.681,299.26C 719.412,299.986 722.87,301.828 725.053,304.786C 727.237,307.745 727.967,311.583 727.243,316.301C 726.713,319.761 725.556,322.549 723.775,324.667C 721.993,326.785 719.685,328.159 716.85,328.79L 725.397,346.875L 715.207,345.312L 707.967,328.591 Z M 703.744,320.245L 711.286,321.401C 715.318,322.02 717.707,319.904 718.45,315.054C 719.201,310.158 717.478,307.388 713.28,306.744L 705.986,305.626L 703.744,320.245 Z "/>
		<path fill="#F7CD33" fill-opacity="1" stroke-width="1.59987" stroke-linejoin="round" stroke="#000000" stroke-opacity="1" d="M 755.826,306.256C 760.576,307.146 763.99,309.171 766.068,312.33C 768.145,315.49 768.729,319.498 767.82,324.353C 766.902,329.255 764.86,332.805 761.695,335.003C 758.53,337.201 754.509,337.844 749.634,336.931L 742.016,335.504L 739.412,349.413L 730.939,347.826L 739.303,303.162L 747.776,304.749L 755.826,306.256 Z M 751.467,329.532C 755.563,330.299 758.096,328.091 759.066,322.907C 760.068,317.56 758.376,314.476 753.992,313.655L 746.375,312.229L 743.417,328.024L 751.467,329.532 Z "/>
		<path fill="#F7CD33" fill-opacity="1" stroke-width="1.59987" stroke-linejoin="round" stroke="#000000" stroke-opacity="1" d="M 811.341,317.925L 801.477,362.281L 793.052,360.408L 797.236,341.597L 780.641,337.907L 776.458,356.717L 768.043,354.846L 777.908,310.49L 786.323,312.361L 782.293,330.478L 798.888,334.169L 802.917,316.052L 811.341,317.925 Z "/>
		<path fill="#F7CD33" fill-opacity="1" stroke-width="1.59987" stroke-linejoin="round" stroke="#000000" stroke-opacity="1" d="M 822.292,320.703L 830.661,322.81L 819.565,366.874L 811.196,364.767L 822.292,320.703 Z "/>
		<path fill="#F7CD33" fill-opacity="1" stroke-width="1.59987" stroke-linejoin="round" stroke="#000000" stroke-opacity="1" d="M 875.735,335.186L 863.37,378.911L 855.374,376.65L 845.554,342.25L 837.274,371.531L 829.094,369.218L 841.46,325.493L 849.456,327.754L 859.153,362.588L 867.556,332.873L 875.735,335.186 Z "/>
	</g>
	<path fill="#C49F18" fill-opacity="1" stroke-width="0.998317" stroke-linejoin="round" stroke="#000000" stroke-opacity="1" d="M 380.128,181.015L 401.246,176.748C 401.246,176.748 413.405,224.104 422.151,237.757C 422.151,237.757 395.913,212.585 380.128,181.015 Z "/>
	<path fill="#DDB31C" fill-opacity="1" stroke-linejoin="round" stroke="#000000" stroke-opacity="1" d="M 376.603,4.69824C 376.573,4.02112 419.797,83.4078 531.142,169.796C 531.142,169.796 508.105,229.308 501.386,335.854C 501.386,335.854 485.068,322.416 476.429,306.098C 476.429,306.098 473.55,356.971 491.787,433.761C 491.787,433.761 490.194,433.124 474.195,422.245C 474.195,422.245 491.047,499.251 510.672,550.874C 510.672,550.874 425.773,424.164 421.506,356.33C 421.506,356.33 424.493,363.156 445.824,381.075C 445.824,381.075 397.615,283.376 380.123,180.984C 380.123,180.984 398.468,215.115 421.933,238.153C 421.933,238.153 383.323,158.907 376.603,4.69824 Z "/>
	<path fill="#C49F18" fill-opacity="1" stroke-width="0.998317" stroke-linejoin="round" stroke="#000000" stroke-opacity="1" d="M 553.236,313.484C 553.839,312.631 536.597,345.481 532.438,417.155C 532.437,417.155 512.919,424.195 491.801,433.154C 491.801,433.154 473.562,361.48 476.442,306.125C 476.442,306.125 479.322,314.444 500.44,334.922C 500.44,334.922 500.76,331.403 553.236,313.484 Z "/>
	<path fill="#C49F18" fill-opacity="1" stroke-width="0.998317" stroke-linejoin="round" stroke="#000000" stroke-opacity="1" d="M 510.306,425.208C 510.253,425.901 506.626,479.55 511.106,550.371C 511.106,550.371 489.774,498.535 474.202,422.808C 474.202,422.808 480.389,426.861 491.694,433.047L 510.306,425.208 Z "/>
	<path fill="#C49F18" fill-opacity="1" stroke-width="0.998317" stroke-linejoin="round" stroke="#000000" stroke-opacity="1" d="M 530.841,169.486C 531.719,168.891 573.078,148.367 656.911,142.608C 656.911,142.608 589.716,229.001 563.478,310.274C 563.478,310.274 514.842,324.353 500.763,334.592C 500.763,334.592 508.443,227.081 530.841,169.486 Z "/>
	<g>
		<filter id="Filter_DropShadow2_" filterUnits="userSpaceOnUse">
			<feGaussianBlur in="SourceAlpha" stdDeviation="0.5" result="blur"/>
			<feOffset dx="1.73257" dy="-9.82587" in="blur" result="offsetBlurredAlpha"/>
			<feMerge>
				<feMergeNode in="offsetBlurredAlpha"/>
				<feMergeNode in="SourceGraphic"/>
			</feMerge>
		</filter>
		<path fill="#D5B100" fill-opacity="1" stroke-width="1.59987" stroke-linejoin="round" stroke="#000000" stroke-opacity="1" filter="url(#Filter_DropShadow2_)" d="M 12.125,508.866L 38.6211,493.801C 46.9883,489.044 53.7625,486.207 58.9437,485.289C 64.1249,484.372 69.3723,485.502 74.6857,488.681C 79.9991,491.86 85.6117,498.648 91.5233,509.046C 95.5303,516.094 97.3061,521.582 96.8508,525.51C 96.3955,529.439 93.6019,533.845 88.4698,538.728C 95.2655,537.018 100.775,537.451 104.998,540.026C 109.222,542.602 113.544,547.776 117.964,555.551L 124.244,566.597C 128.835,574.671 131.469,581.083 132.148,585.83C 132.826,590.578 131.898,594.618 129.365,597.951C 126.831,601.284 120.391,605.892 110.045,611.774L 80.2615,628.708L 12.125,508.866 Z M 50.1123,513.363L 65.6371,540.669C 66.4469,540.146 67.0775,539.756 67.5291,539.499C 69.4416,538.412 70.2221,536.949 69.8708,535.11C 69.5194,533.271 67.2729,528.709 63.1312,521.424C 60.948,517.585 59.2004,515.013 57.8883,513.71C 56.5762,512.407 55.4603,511.75 54.5405,511.74C 53.6208,511.729 52.1447,512.271 50.1123,513.363 Z M 75.9869,558.873L 95.8241,593.764C 98.4702,592.05 99.8079,590.338 99.8372,588.628C 99.8666,586.918 98.4482,583.542 95.5822,578.501L 88.9788,566.887C 85.9421,561.546 83.764,558.503 82.4442,557.758C 81.1245,557.013 78.9721,557.385 75.9869,558.873 Z "/>
		<filter id="Filter_DropShadow3_" filterUnits="userSpaceOnUse">
			<feGaussianBlur in="SourceAlpha" stdDeviation="0.5" result="blur"/>
			<feOffset dx="1.73257" dy="-9.82587" in="blur" result="offsetBlurredAlpha"/>
			<feMerge>
				<feMergeNode in="offsetBlurredAlpha"/>
				<feMergeNode in="SourceGraphic"/>
			</feMerge>
		</filter>
		<path fill="#D5B100" fill-opacity="1" stroke-width="1.59987" stroke-linejoin="round" stroke="#000000" stroke-opacity="1" filter="url(#Filter_DropShadow3_)" d="M 110.762,511.566L 123.014,505.649C 131.191,501.7 136.904,499.4 140.153,498.75C 143.401,498.099 146.675,498.859 149.975,501.03C 153.274,503.2 156.541,507.634 159.775,514.332C 162.723,520.436 164.062,524.851 163.791,527.576C 163.52,530.302 161.598,532.784 158.026,535.023C 161.937,534.38 164.891,534.627 166.886,535.764C 168.882,536.9 170.368,538.11 171.343,539.392C 172.319,540.674 174.356,544.524 177.455,550.94L 187.573,571.893L 171.604,579.605L 158.792,553.074C 156.73,548.803 155.183,546.288 154.151,545.527C 153.12,544.766 151.462,544.937 149.177,546.041L 166.562,582.04L 148.912,590.563L 110.762,511.566 Z M 134.689,516.042L 143.382,534.041C 145.246,533.141 146.396,532.184 146.83,531.172C 147.264,530.159 146.621,527.872 144.901,524.309L 142.75,519.856C 141.513,517.294 140.339,515.786 139.23,515.333C 138.12,514.88 136.606,515.116 134.689,516.042 Z "/>
		<filter id="Filter_DropShadow4_" filterUnits="userSpaceOnUse">
			<feGaussianBlur in="SourceAlpha" stdDeviation="0.5" result="blur"/>
			<feOffset dx="1.73257" dy="-9.82587" in="blur" result="offsetBlurredAlpha"/>
			<feMerge>
				<feMergeNode in="offsetBlurredAlpha"/>
				<feMergeNode in="SourceGraphic"/>
			</feMerge>
		</filter>
		<path fill="#D5B100" fill-opacity="1" stroke-width="1.59987" stroke-linejoin="round" stroke="#000000" stroke-opacity="1" filter="url(#Filter_DropShadow4_)" d="M 220.683,518.18C 224.041,526.167 226.26,531.891 227.341,535.352C 228.421,538.813 228.702,542.271 228.183,545.727C 227.663,549.182 226.289,552.248 224.06,554.923C 221.831,557.598 218.821,559.732 215.03,561.326C 211.436,562.837 207.912,563.5 204.459,563.314C 201.006,563.128 197.822,562.007 194.906,559.952C 191.991,557.896 189.679,555.301 187.971,552.167C 186.263,549.033 183.688,543.371 180.245,535.181L 174.516,521.553C 171.158,513.566 168.939,507.843 167.858,504.382C 166.778,500.921 166.497,497.463 167.016,494.007C 167.536,490.551 168.91,487.486 171.139,484.811C 173.368,482.136 176.378,480.001 180.169,478.408C 183.763,476.897 187.287,476.234 190.74,476.42C 194.193,476.606 197.377,477.727 200.293,479.782C 203.208,481.838 205.52,484.433 207.228,487.567C 208.936,490.701 211.511,496.363 214.954,504.553L 220.683,518.18 Z M 191.573,499.513C 190.009,495.791 188.871,493.468 188.161,492.543C 187.45,491.618 186.674,491.333 185.832,491.687C 185.115,491.989 184.743,492.641 184.716,493.643C 184.689,494.646 185.541,497.205 187.271,501.321L 202.98,538.686C 204.935,543.335 206.266,546.151 206.974,547.133C 207.683,548.115 208.494,548.414 209.408,548.03C 210.34,547.638 210.673,546.761 210.406,545.398C 210.139,544.036 209.015,540.998 207.033,536.285L 191.573,499.513 Z "/>
		<filter id="Filter_DropShadow5_" filterUnits="userSpaceOnUse">
			<feGaussianBlur in="SourceAlpha" stdDeviation="0.5" result="blur"/>
			<feOffset dx="1.73257" dy="-9.82587" in="blur" result="offsetBlurredAlpha"/>
			<feMerge>
				<feMergeNode in="offsetBlurredAlpha"/>
				<feMergeNode in="SourceGraphic"/>
			</feMerge>
		</filter>
		<path fill="#D5B100" fill-opacity="1" stroke-width="1.59987" stroke-linejoin="round" stroke="#000000" stroke-opacity="1" filter="url(#Filter_DropShadow5_)" d="M 281.129,442.42L 301.313,528.245L 279.37,535.783C 273.363,523.475 266.438,509.269 258.593,493.165C 260.25,501.072 263.489,516.545 268.309,539.583L 246.489,547.079L 209.63,466.981L 227.284,460.917L 239.621,488.932L 252.004,517.078C 247.342,501.861 242.123,482.104 236.345,457.804L 254.151,451.687C 255.173,454.064 258.99,462.959 265.601,478.374L 279.207,510.081C 273.16,488.919 267.916,468.387 263.475,448.484L 281.129,442.42 Z "/>
		<filter id="Filter_DropShadow6_" filterUnits="userSpaceOnUse">
			<feGaussianBlur in="SourceAlpha" stdDeviation="0.5" result="blur"/>
			<feOffset dx="1.73257" dy="-9.82587" in="blur" result="offsetBlurredAlpha"/>
			<feMerge>
				<feMergeNode in="offsetBlurredAlpha"/>
				<feMergeNode in="SourceGraphic"/>
			</feMerge>
		</filter>
		<path fill="#D5B100" fill-opacity="1" stroke-width="1.59987" stroke-linejoin="round" stroke="#000000" stroke-opacity="1" filter="url(#Filter_DropShadow6_)" d="M 337.276,455.229L 320.145,459.813L 318.49,453.628C 317.719,450.745 316.974,448.977 316.256,448.325C 315.538,447.673 314.588,447.505 313.404,447.822C 312.118,448.166 311.287,448.963 310.912,450.213C 310.537,451.463 310.64,453.177 311.223,455.356C 311.974,458.161 312.872,460.184 313.919,461.425C 314.928,462.675 317.204,463.886 320.748,465.058C 330.917,468.456 337.616,471.698 340.848,474.785C 344.067,477.864 346.772,483.498 348.963,491.689C 350.557,497.645 351.128,502.195 350.676,505.34C 350.224,508.484 348.528,511.474 345.588,514.308C 342.647,517.142 338.886,519.172 334.303,520.399C 329.269,521.746 324.675,521.777 320.522,520.493C 316.37,519.21 313.279,516.986 311.25,513.823C 309.221,510.66 307.354,505.894 305.65,499.524L 304.166,493.976L 321.296,489.393L 324.122,499.952C 324.995,503.215 325.837,505.235 326.649,506.012C 327.461,506.788 328.585,506.985 330.022,506.6C 331.468,506.213 332.389,505.359 332.786,504.038C 333.182,502.716 333.08,500.932 332.479,498.686C 331.16,493.758 329.693,490.702 328.078,489.518C 326.432,488.33 322.702,486.616 316.889,484.375C 311.058,482.103 307.135,480.372 305.121,479.181C 303.106,477.989 301.197,476.102 299.394,473.519C 297.591,470.936 296.096,467.427 294.909,462.991C 293.196,456.588 292.653,451.719 293.28,448.384C 293.908,445.049 295.578,442.123 298.291,439.607C 301.005,437.091 304.597,435.234 309.067,434.038C 313.96,432.729 318.373,432.518 322.304,433.406C 326.235,434.294 329.126,435.961 330.978,438.405C 332.83,440.849 334.637,445.368 336.401,451.961L 337.276,455.229 Z "/>
		<filter id="Filter_DropShadow7_" filterUnits="userSpaceOnUse">
			<feGaussianBlur in="SourceAlpha" stdDeviation="0.5" result="blur"/>
			<feOffset dx="1.73257" dy="-9.82587" in="blur" result="offsetBlurredAlpha"/>
			<feMerge>
				<feMergeNode in="offsetBlurredAlpha"/>
				<feMergeNode in="SourceGraphic"/>
			</feMerge>
		</filter>
		<path fill="#D5B100" fill-opacity="1" stroke-width="1.59987" stroke-linejoin="round" stroke="#000000" stroke-opacity="1" filter="url(#Filter_DropShadow7_)" d="M 342.198,426.748L 374.157,419.988L 377.834,437.371L 365.05,440.075L 368.497,456.372L 380.368,453.861L 383.815,470.157L 371.944,472.668L 375.851,491.138L 389.548,488.241L 393.225,505.624L 360.352,512.577L 342.198,426.748 Z "/>
		<filter id="Filter_DropShadow8_" filterUnits="userSpaceOnUse">
			<feGaussianBlur in="SourceAlpha" stdDeviation="0.5" result="blur"/>
			<feOffset dx="1.73257" dy="-9.82587" in="blur" result="offsetBlurredAlpha"/>
			<feMerge>
				<feMergeNode in="offsetBlurredAlpha"/>
				<feMergeNode in="SourceGraphic"/>
			</feMerge>
		</filter>
		<path fill="#D5B100" fill-opacity="1" stroke-width="1.59987" stroke-linejoin="round" stroke="#000000" stroke-opacity="1" filter="url(#Filter_DropShadow8_)" d="M 385.257,417.79L 398.702,415.702C 407.675,414.309 413.81,413.775 417.107,414.1C 420.405,414.425 423.315,416.106 425.838,419.145C 428.361,422.183 430.193,427.377 431.334,434.726C 432.374,441.425 432.368,446.038 431.314,448.566C 430.26,451.094 427.698,452.909 423.629,454.009C 427.557,454.534 430.31,455.631 431.888,457.3C 433.465,458.969 434.534,460.559 435.093,462.07C 435.652,463.581 436.479,467.858 437.572,474.899L 441.142,497.891L 423.619,500.612L 419.098,471.499C 418.371,466.812 417.624,463.955 416.86,462.926C 416.095,461.898 414.459,461.578 411.951,461.968L 418.085,501.471L 398.717,504.479L 385.257,417.79 Z M 406.84,429.048L 409.907,448.8C 411.953,448.482 413.331,447.902 414.042,447.06C 414.752,446.218 414.804,443.843 414.197,439.933L 413.438,435.047C 413.002,432.235 412.319,430.451 411.39,429.693C 410.46,428.936 408.944,428.721 406.84,429.048 Z "/>
		<filter id="Filter_DropShadow9_" filterUnits="userSpaceOnUse">
			<feGaussianBlur in="SourceAlpha" stdDeviation="0.5" result="blur"/>
			<feOffset dx="1.73257" dy="-9.82587" in="blur" result="offsetBlurredAlpha"/>
			<feMerge>
				<feMergeNode in="offsetBlurredAlpha"/>
				<feMergeNode in="SourceGraphic"/>
			</feMerge>
		</filter>
		<path fill="#D5B100" fill-opacity="1" stroke-width="1.59987" stroke-linejoin="round" stroke="#000000" stroke-opacity="1" filter="url(#Filter_DropShadow9_)" d="M 611.648,399.347L 583.827,397.763L 584.399,387.718C 584.665,383.036 584.423,380.031 583.673,378.705C 582.922,377.379 581.585,376.661 579.664,376.551C 577.574,376.432 575.942,377.213 574.767,378.894C 573.593,380.575 572.905,383.185 572.703,386.724C 572.444,391.279 572.79,394.74 573.741,397.107C 574.632,399.47 577.434,402.397 582.147,405.888C 595.652,415.96 604.057,424.095 607.361,430.292C 610.651,436.469 611.917,446.209 611.16,459.511C 610.609,469.184 609.223,476.256 607.002,480.727C 604.781,485.198 600.779,488.825 594.997,491.609C 589.215,494.393 582.602,495.573 575.159,495.149C 566.983,494.684 560.112,492.472 554.545,488.513C 548.979,484.555 545.459,479.716 543.987,473.997C 542.515,468.278 542.073,460.247 542.662,449.902L 543.175,440.892L 570.997,442.477L 570.02,459.626C 569.718,464.926 569.982,468.354 570.811,469.913C 571.641,471.471 573.222,472.317 575.556,472.45C 577.905,472.583 579.7,471.762 580.942,469.984C 582.183,468.207 582.907,465.495 583.115,461.847C 583.571,453.844 582.885,448.561 581.057,445.999C 579.184,443.416 574.461,439.023 566.887,432.82C 559.302,426.562 554.298,422.049 551.878,419.28C 549.457,416.511 547.536,412.756 546.115,408.014C 544.694,403.272 544.189,397.299 544.599,390.094C 545.192,379.695 546.776,372.161 549.353,367.492C 551.929,362.823 555.861,359.278 561.148,356.858C 566.435,354.437 572.709,353.433 579.97,353.847C 587.917,354.299 594.605,356.155 600.036,359.414C 605.466,362.673 608.962,366.581 610.523,371.14C 612.085,375.699 612.56,383.332 611.951,394.039L 611.648,399.347 Z "/>
		<filter id="Filter_DropShadow10_" filterUnits="userSpaceOnUse">
			<feGaussianBlur in="SourceAlpha" stdDeviation="0.5" result="blur"/>
			<feOffset dx="1.73257" dy="-9.82587" in="blur" result="offsetBlurredAlpha"/>
			<feMerge>
				<feMergeNode in="offsetBlurredAlpha"/>
				<feMergeNode in="SourceGraphic"/>
			</feMerge>
		</filter>
		<path fill="#D5B100" fill-opacity="1" stroke-width="1.59987" stroke-linejoin="round" stroke="#000000" stroke-opacity="1" filter="url(#Filter_DropShadow10_)" d="M 667.192,415.615L 664.621,433.195L 653.539,431.574L 643.415,500.798L 624.022,497.962L 634.145,428.738L 623.063,427.118L 625.634,409.537L 667.192,415.615 Z "/>
		<filter id="Filter_DropShadow11_" filterUnits="userSpaceOnUse">
			<feGaussianBlur in="SourceAlpha" stdDeviation="0.5" result="blur"/>
			<feOffset dx="1.73257" dy="-9.82587" in="blur" result="offsetBlurredAlpha"/>
			<feMerge>
				<feMergeNode in="offsetBlurredAlpha"/>
				<feMergeNode in="SourceGraphic"/>
			</feMerge>
		</filter>
		<path fill="#D5B100" fill-opacity="1" stroke-width="1.59987" stroke-linejoin="round" stroke="#000000" stroke-opacity="1" filter="url(#Filter_DropShadow11_)" d="M 676.846,417.35L 690.141,420.244C 699.014,422.175 704.93,423.886 707.889,425.376C 710.848,426.866 712.957,429.483 714.217,433.226C 715.477,436.969 715.316,442.474 713.735,449.742C 712.293,456.365 710.626,460.667 708.732,462.646C 706.839,464.625 703.796,465.395 699.603,464.956C 703.079,466.861 705.252,468.876 706.123,471.001C 706.993,473.126 707.418,474.994 707.395,476.605C 707.373,478.216 706.604,482.503 705.089,489.466L 700.141,512.201L 682.813,508.43L 689.079,479.642C 690.087,475.008 690.42,472.073 690.077,470.838C 689.734,469.603 688.322,468.716 685.843,468.177L 677.341,507.239L 658.19,503.071L 676.846,417.35 Z M 692.927,435.624L 688.677,455.156C 690.7,455.596 692.195,455.551 693.161,455.022C 694.127,454.492 695.03,452.294 695.872,448.429L 696.923,443.597C 697.529,440.816 697.534,438.906 696.94,437.865C 696.345,436.824 695.008,436.077 692.927,435.624 Z "/>
		<filter id="Filter_DropShadow12_" filterUnits="userSpaceOnUse">
			<feGaussianBlur in="SourceAlpha" stdDeviation="0.5" result="blur"/>
			<feOffset dx="1.73257" dy="-9.82587" in="blur" result="offsetBlurredAlpha"/>
			<feMerge>
				<feMergeNode in="offsetBlurredAlpha"/>
				<feMergeNode in="SourceGraphic"/>
			</feMerge>
		</filter>
		<path fill="#D5B100" fill-opacity="1" stroke-width="1.59987" stroke-linejoin="round" stroke="#000000" stroke-opacity="1" filter="url(#Filter_DropShadow12_)" d="M 764.264,439.457L 749.888,526.69L 730.87,521.063L 734.33,505.874L 727.73,503.921L 722.368,518.547L 703.35,512.919L 737.863,431.644L 764.264,439.457 Z M 738.015,490.751C 740.203,480.855 742.952,468.411 746.263,453.419C 739.696,469.752 734.933,481.6 731.973,488.963L 738.015,490.751 Z "/>
		<filter id="Filter_DropShadow13_" filterUnits="userSpaceOnUse">
			<feGaussianBlur in="SourceAlpha" stdDeviation="0.5" result="blur"/>
			<feOffset dx="1.73257" dy="-9.82587" in="blur" result="offsetBlurredAlpha"/>
			<feMerge>
				<feMergeNode in="offsetBlurredAlpha"/>
				<feMergeNode in="SourceGraphic"/>
			</feMerge>
		</filter>
		<path fill="#D5B100" fill-opacity="1" stroke-width="1.59987" stroke-linejoin="round" stroke="#000000" stroke-opacity="1" filter="url(#Filter_DropShadow13_)" d="M 824.072,460.877L 793.146,542.973L 777.425,537.051L 782.747,496.447L 768.69,533.76L 752.969,527.838L 783.895,445.742L 797.87,451.007L 794.423,491.927L 808.351,454.955L 824.072,460.877 Z "/>
		<filter id="Filter_DropShadow14_" filterUnits="userSpaceOnUse">
			<feGaussianBlur in="SourceAlpha" stdDeviation="0.5" result="blur"/>
			<feOffset dx="1.73257" dy="-9.82587" in="blur" result="offsetBlurredAlpha"/>
			<feMerge>
				<feMergeNode in="offsetBlurredAlpha"/>
				<feMergeNode in="SourceGraphic"/>
			</feMerge>
		</filter>
		<path fill="#D5B100" fill-opacity="1" stroke-width="1.59987" stroke-linejoin="round" stroke="#000000" stroke-opacity="1" filter="url(#Filter_DropShadow14_)" d="M 863.19,513.913L 845.405,505.676L 848.679,498.607C 850.745,494.146 851.915,491.296 852.188,490.059C 852.461,488.821 852.13,487.986 851.195,487.553C 850.383,487.177 849.607,487.407 848.866,488.243C 848.125,489.079 846.822,491.513 844.955,495.543L 827.447,533.346C 825.809,536.883 824.89,539.284 824.69,540.549C 824.489,541.814 824.866,542.667 825.819,543.109C 826.868,543.595 827.866,543.308 828.812,542.249C 829.759,541.189 831.056,538.88 832.704,535.322L 836.918,526.221L 833.531,524.652L 839.131,512.56L 859.457,521.974L 839.856,564.296L 829.151,559.337L 830.223,552.893C 827.907,554.816 825.625,555.869 823.376,556.051C 821.128,556.233 818.79,555.763 816.364,554.639C 813.479,553.303 811.163,551.22 809.415,548.39C 807.666,545.56 806.707,542.617 806.537,539.561C 806.366,536.506 806.741,533.556 807.661,530.713C 808.582,527.869 810.289,523.755 812.783,518.37L 823.56,495.1C 827.026,487.616 829.883,482.339 832.13,479.268C 834.377,476.198 837.762,473.996 842.286,472.661C 846.809,471.327 851.62,471.841 856.719,474.202C 861.739,476.527 865.34,479.671 867.523,483.633C 869.706,487.595 870.526,491.48 869.983,495.289C 869.441,499.098 867.694,504.188 864.743,510.559L 863.19,513.913 Z "/>
		<filter id="Filter_DropShadow15_" filterUnits="userSpaceOnUse">
			<feGaussianBlur in="SourceAlpha" stdDeviation="0.5" result="blur"/>
			<feOffset dx="1.73257" dy="-9.82587" in="blur" result="offsetBlurredAlpha"/>
			<feMerge>
				<feMergeNode in="offsetBlurredAlpha"/>
				<feMergeNode in="SourceGraphic"/>
			</feMerge>
		</filter>
		<path fill="#D5B100" fill-opacity="1" stroke-width="1.59987" stroke-linejoin="round" stroke="#000000" stroke-opacity="1" filter="url(#Filter_DropShadow15_)" d="M 888.366,490.741L 917.065,506.346L 908.577,521.955L 897.098,515.713L 889.141,530.346L 899.8,536.143L 891.843,550.776L 881.184,544.98L 872.166,561.565L 884.465,568.253L 875.978,583.862L 846.459,567.811L 888.366,490.741 Z "/>
		<filter id="Filter_DropShadow16_" filterUnits="userSpaceOnUse">
			<feGaussianBlur in="SourceAlpha" stdDeviation="0.5" result="blur"/>
			<feOffset dx="1.73257" dy="-9.82587" in="blur" result="offsetBlurredAlpha"/>
			<feMerge>
				<feMergeNode in="offsetBlurredAlpha"/>
				<feMergeNode in="SourceGraphic"/>
			</feMerge>
		</filter>
		<path fill="#D5B100" fill-opacity="1" stroke-width="1.59987" stroke-linejoin="round" stroke="#000000" stroke-opacity="1" filter="url(#Filter_DropShadow16_)" d="M 927.226,512.084L 938.78,519.271C 946.49,524.067 951.489,527.664 953.777,530.06C 956.064,532.457 957.173,535.63 957.104,539.579C 957.035,543.527 955.037,548.659 951.108,554.975C 947.528,560.731 944.514,564.223 942.066,565.453C 939.618,566.682 936.493,566.386 932.691,564.566C 935.326,567.527 936.697,570.154 936.804,572.448C 936.912,574.742 936.684,576.644 936.123,578.154C 935.561,579.664 933.399,583.445 929.635,589.495L 917.345,609.253L 902.287,599.886L 917.849,574.869C 920.354,570.842 921.652,568.189 921.743,566.911C 921.834,565.632 920.802,564.323 918.648,562.983L 897.532,596.928L 880.889,586.576L 927.226,512.084 Z M 936.244,534.695L 925.686,551.667C 927.445,552.761 928.868,553.221 929.955,553.046C 931.043,552.871 932.632,551.104 934.721,547.745L 937.333,543.546C 938.836,541.13 939.482,539.332 939.272,538.152C 939.061,536.972 938.052,535.819 936.244,534.695 Z "/>
		<filter id="Filter_DropShadow17_" filterUnits="userSpaceOnUse">
			<feGaussianBlur in="SourceAlpha" stdDeviation="0.5" result="blur"/>
			<feOffset dx="1.73257" dy="-9.82587" in="blur" result="offsetBlurredAlpha"/>
			<feMerge>
				<feMergeNode in="offsetBlurredAlpha"/>
				<feMergeNode in="SourceGraphic"/>
			</feMerge>
		</filter>
		<path fill="#D5B100" fill-opacity="1" stroke-width="1.59987" stroke-linejoin="round" stroke="#000000" stroke-opacity="1" filter="url(#Filter_DropShadow17_)" d="M 992.427,587.514L 977.983,577.226L 981.697,572.011C 983.428,569.58 984.317,567.88 984.362,566.911C 984.408,565.942 983.932,565.103 982.934,564.392C 981.849,563.619 980.705,563.486 979.503,563.993C 978.3,564.5 977.045,565.672 975.736,567.509C 974.052,569.874 973.065,571.855 972.774,573.452C 972.453,575.027 972.969,577.553 974.323,581.031C 978.179,591.035 979.947,598.265 979.625,602.723C 979.302,607.165 976.68,612.839 971.762,619.745C 968.185,624.767 965.04,628.105 962.328,629.759C 959.616,631.414 956.231,632.01 952.174,631.548C 948.116,631.087 944.155,629.48 940.29,626.727C 936.046,623.704 933.096,620.183 931.441,616.164C 929.786,612.144 929.531,608.345 930.678,604.767C 931.824,601.188 934.31,596.713 938.135,591.343L 941.467,586.665L 955.911,596.953L 949.57,605.856C 947.61,608.607 946.589,610.543 946.508,611.664C 946.426,612.784 946.99,613.776 948.202,614.639C 949.422,615.507 950.667,615.674 951.938,615.137C 953.209,614.601 954.519,613.386 955.868,611.493C 958.827,607.338 960.249,604.26 960.134,602.261C 960.001,600.235 958.947,596.268 956.973,590.359C 955.01,584.417 953.846,580.29 953.482,577.978C 953.117,575.666 953.356,572.993 954.199,569.957C 955.042,566.922 956.796,563.534 959.46,559.794C 963.305,554.395 966.713,550.875 969.684,549.235C 972.655,547.595 975.974,547.019 979.642,547.509C 983.31,547.998 987.029,549.585 990.798,552.27C 994.924,555.208 997.896,558.476 999.715,562.072C 1001.53,565.668 1002.09,568.959 1001.39,571.943C 1000.68,574.927 998.349,579.199 994.39,584.758L 992.427,587.514 Z "/>
	</g>
</svg>
