<?xml version="1.0" encoding="utf-8"?>
<!DOCTYPE svg PUBLIC "-//W3C//DTD SVG 1.1//EN" "http://www.w3.org/Graphics/SVG/1.1/DTD/svg11.dtd">
<svg xmlns="http://www.w3.org/2000/svg" xmlns:xlink="http://www.w3.org/1999/xlink" version="1.1" baseProfile="full" width="1035.43" height="686.663" viewBox="0 0 1035.43 686.66" enable-background="new 0 0 1035.43 686.66" xml:space="preserve">
	<path fill="#9CA301" fill-opacity="1" stroke-width="0.998317" stroke-linejoin="round" stroke="#000000" stroke-opacity="1" d="M 149.961,607.341C 149.961,607.341 504.138,349.075 938.017,633.257L 937.057,661.094C 937.057,661.094 560.459,379.996 150.239,635.309L 149.961,607.341 Z "/>
	<path fill="#18502F" fill-opacity="1" stroke-width="0.998317" stroke-linejoin="round" stroke="#000000" stroke-opacity="1" d="M 150.239,634.349L 80.3937,597.562L 80.8046,567.794L 150.239,606.511L 150.239,634.349 Z "/>
	<path fill="#18502F" fill-opacity="1" stroke-width="0.998317" stroke-linejoin="round" stroke="#000000" stroke-opacity="1" d="M 937.359,632.874L 991.754,582.639L 990.474,610.796L 937.039,659.432L 937.359,632.874 Z "/>
	<path fill="#18502F" fill-opacity="1" stroke-width="0.998317" stroke-linejoin="round" stroke="#000000" stroke-opacity="1" d="M 937.785,632.555L 991.754,581.999C 991.754,581.999 512.357,240.373 80.1804,567.271L 149.584,606.743C 149.584,606.743 502.211,349.583 937.785,632.555 Z "/>
	<path fill="#CB1C1A" fill-opacity="1" stroke-width="0.998317" stroke-linejoin="round" stroke="#000000" stroke-opacity="1" d="M 925.258,288.117L 922.934,481.143L 886.244,521.14L 886.434,303.903L 925.258,288.117 Z "/>
	<path fill="#CB1C1A" fill-opacity="1" stroke-width="0.998317" stroke-linejoin="round" stroke="#000000" stroke-opacity="1" d="M 102.096,292.602C 102.096,292.602 394.657,158.112 925.388,288.442L 886.35,303.801C 886.35,303.801 488.724,181.149 141.879,307.214L 102.096,292.602 Z "/>
	<path fill="#CB1C1A" fill-opacity="1" stroke-width="0.998317" stroke-linejoin="round" stroke="#000000" stroke-opacity="1" d="M 142.281,307.084L 102.177,293.005L 103.835,488.024C 103.835,488.024 143.672,522.581 146.232,522.582C 148.792,522.582 141.854,308.364 142.281,307.084 Z "/>
	<path fill="#FF0000" fill-opacity="1" stroke-width="0.998317" stroke-linejoin="round" stroke="#000000" stroke-opacity="1" d="M 145.752,522.582L 142.39,307.404C 142.39,307.404 447.453,178.909 886.648,304.205L 886.244,521.354C 886.244,521.354 526.381,328.09 145.752,522.582 Z "/>
	<path fill="#C49F18" fill-opacity="1" stroke-linejoin="round" stroke="#000000" stroke-opacity="1" d="M 375.966,3.40662C 376.533,1.526 400.924,22.605 518.674,36.6839C 518.674,36.684 548.112,76.3606 657.543,143.555C 657.543,143.555 574.989,148.675 530.833,169.793C 530.833,169.793 431.641,97.4794 375.966,3.40662 Z "/>
	<g>
		<filter id="Filter_DropShadow1_" filterUnits="userSpaceOnUse">
			<feGaussianBlur in="SourceAlpha" stdDeviation="2" result="blur"/>
			<feOffset dx="2.51969" dy="2.51969" in="blur" result="offsetBlurredAlpha"/>
			<feMerge>
				<feMergeNode in="offsetBlurredAlpha"/>
				<feMergeNode in="SourceGraphic"/>
			</feMerge>
		</filter>
		<path fill="#706CF5" fill-opacity="1" stroke-width="0.998317" stroke-linejoin="round" stroke="#000000" stroke-opacity="1" filter="url(#Filter_DropShadow1_)" d="M 540.125,174.613C 644.334,174.613 715.142,245.661 715.142,350.221L 715.142,421.349L 715.007,429.209C 711.543,529.454 641.701,596.957 540.125,596.957L 470.695,596.957C 366.486,596.957 295.678,528.195 295.678,423.635L 295.678,347.935C 295.678,246.497 362.321,178.752 461.45,174.796L 470.695,174.613L 540.125,174.613 Z "/>
		<g>
			<path fill="#FFFFFF" fill-opacity="0.603922" stroke-width="0.998317" stroke-linejoin="round" stroke="#000000" stroke-opacity="0.603922" d="M 566.205,478.182C 548.771,489.756 527.87,496.495 505.401,496.495C 462.146,496.495 424.704,471.521 406.618,435.158C 397.484,430.328 389.113,425.285 381.634,420.126C 396.611,474.597 446.35,514.601 505.401,514.601C 540.465,514.601 572.247,500.496 595.416,477.632C 586.369,478.39 576.577,478.579 566.205,478.182 Z "/>
			<path fill="#FFFFFF" fill-opacity="0.603922" stroke-width="0.998317" stroke-linejoin="round" stroke="#000000" stroke-opacity="0.603922" d="M 397.446,408.767C 390.023,404.205 383.286,399.514 377.329,394.765C 355.233,377.15 343.878,358.735 348.119,343.102C 352.348,327.512 371.343,317.425 399.16,313.453C 422.257,279.366 461.223,256.976 505.401,256.976C 573.482,256.976 629.186,310.151 633.51,377.366C 655.598,394.978 666.947,413.389 662.707,429.02C 658.456,444.691 639.284,454.802 611.229,458.729C 603.684,459.786 595.495,460.395 586.782,460.545C 558.378,461.033 524.393,456.64 488.896,446.945C 453.303,437.224 421.712,423.681 397.446,408.767 Z M 601.024,441.056C 610.275,424.978 615.613,406.348 615.733,386.477L 615.735,385.789C 615.735,324.647 566.337,275.081 505.401,275.081C 464.887,275.081 429.473,296.991 410.286,329.646C 400.628,346.083 395.082,365.243 395.066,385.702C 418.051,401.136 452.786,416.355 492.967,427.329C 534.441,438.656 573.199,443.134 601.024,441.056 Z M 623.072,437.371C 634.138,434.112 641.272,428.958 643.172,421.957C 645.104,414.833 641.398,406.601 633.21,398.002L 633.039,399.709C 631.619,412.97 628.193,425.627 623.072,437.371 Z M 388.73,331.97L 389.659,329.989C 376.606,333.212 368.273,338.658 366.196,346.312C 364.142,353.886 368.46,362.711 377.759,371.898C 379.268,357.781 383.05,344.346 388.73,331.97 Z "/>
		</g>
	</g>
	<g>
		<path fill="#F7CD33" fill-opacity="1" stroke-width="1.59987" stroke-linejoin="round" stroke="#000000" stroke-opacity="1" d="M 208.766,317.8L 219.148,362.038L 210.999,363.951L 203.85,333.488L 200.215,357.391L 191.453,359.447L 177.506,339.671L 184.655,370.133L 176.623,372.018L 166.241,327.78L 176.337,325.411L 194.092,350.734L 198.544,320.199L 208.766,317.8 Z "/>
		<path fill="#F7CD33" fill-opacity="1" stroke-width="1.59987" stroke-linejoin="round" stroke="#000000" stroke-opacity="1" d="M 219.98,315.574L 228.432,313.83L 237.614,358.333L 229.162,360.077L 219.98,315.574 Z "/>
		<path fill="#F7CD33" fill-opacity="1" stroke-width="1.59987" stroke-linejoin="round" stroke="#000000" stroke-opacity="1" d="M 275.175,324.512L 279.391,347.438C 277.913,348.876 276.032,350.118 273.747,351.165C 271.462,352.212 269.028,352.973 266.444,353.449C 259.77,354.676 254.24,353.624 249.855,350.292C 245.47,346.96 242.605,341.639 241.261,334.328C 239.917,327.017 240.701,321.025 243.613,316.351C 246.526,311.677 251.32,308.726 257.995,307.499C 260.617,307.017 263.133,306.874 265.542,307.072C 267.951,307.27 270.038,307.782 271.803,308.61L 270.573,315.74C 266.383,314.633 262.61,314.388 259.253,315.005C 251.182,316.489 248.096,322.395 249.995,332.722C 251.894,343.049 256.918,347.463 265.068,345.964C 266.707,345.663 268.371,345.146 270.06,344.416L 268.064,333.558L 260.746,334.903L 259.37,327.419L 275.175,324.512 Z "/>
		<path fill="#F7CD33" fill-opacity="1" stroke-width="1.59987" stroke-linejoin="round" stroke="#000000" stroke-opacity="1" d="M 315.145,298.842L 322.014,343.76L 313.483,345.064L 310.57,326.016L 293.766,328.585L 296.678,347.634L 288.157,348.937L 281.289,304.019L 289.81,302.716L 292.615,321.063L 309.42,318.493L 306.615,300.146L 315.145,298.842 Z "/>
		<path fill="#F7CD33" fill-opacity="1" stroke-width="1.59987" stroke-linejoin="round" stroke="#000000" stroke-opacity="1" d="M 354.172,301.538L 343.009,302.938L 347.717,340.474L 339.154,341.548L 334.447,304.012L 323.284,305.412L 322.337,297.861L 342.063,295.387L 353.225,293.987L 354.172,301.538 Z "/>
		<path fill="#F7CD33" fill-opacity="1" stroke-width="1.59987" stroke-linejoin="round" stroke="#000000" stroke-opacity="1" d="M 391.484,290.076L 381.115,321.902L 382.596,336.638L 374.009,337.501L 372.528,322.765L 356.162,293.626L 365.306,292.707L 376.016,313.068L 382.4,290.989L 391.484,290.076 Z "/>
		<path fill="#F7CD33" fill-opacity="1" stroke-width="1.59987" stroke-linejoin="round" stroke="#000000" stroke-opacity="1" d="M 640.649,290.03L 637.216,335.34L 628.87,334.708L 631.234,303.507L 620.565,325.203L 611.59,324.523L 604.251,301.463L 601.888,332.664L 593.661,332.04L 597.094,286.73L 607.434,287.514L 616.732,317.01L 630.179,289.237L 640.649,290.03 Z "/>
		<path fill="#F7CD33" fill-opacity="1" stroke-width="1.59987" stroke-linejoin="round" stroke="#000000" stroke-opacity="1" d="M 664.558,339.027C 658.306,338.303 653.76,335.802 650.92,331.523C 648.08,327.245 647.105,321.268 647.993,313.592C 648.882,305.917 651.198,300.321 654.94,296.805C 658.683,293.289 663.68,291.893 669.932,292.617C 676.176,293.34 680.719,295.84 683.559,300.119C 686.399,304.397 687.375,310.374 686.486,318.049C 685.597,325.725 683.282,331.321 679.539,334.837C 675.796,338.353 670.803,339.75 664.558,339.027 Z M 665.433,331.467C 672.387,332.272 676.467,327.46 677.675,317.029C 678.883,306.599 676.01,300.981 669.056,300.176C 662.103,299.371 658.022,304.184 656.814,314.614C 655.607,325.044 658.479,330.662 665.433,331.467 Z "/>
		<path fill="#F7CD33" fill-opacity="1" stroke-width="1.59987" stroke-linejoin="round" stroke="#000000" stroke-opacity="1" d="M 707.967,328.591L 702.59,327.767L 700.251,343.019L 691.731,341.712L 698.618,296.797L 707.139,298.104L 714.681,299.26C 719.412,299.986 722.87,301.828 725.053,304.786C 727.237,307.745 727.966,311.583 727.243,316.301C 726.712,319.761 725.556,322.549 723.775,324.667C 721.993,326.785 719.685,328.159 716.85,328.79L 725.397,346.875L 715.206,345.312L 707.967,328.591 Z M 703.744,320.245L 711.285,321.401C 715.318,322.02 717.707,319.904 718.45,315.054C 719.201,310.158 717.478,307.388 713.28,306.744L 705.985,305.626L 703.744,320.245 Z "/>
		<path fill="#F7CD33" fill-opacity="1" stroke-width="1.59987" stroke-linejoin="round" stroke="#000000" stroke-opacity="1" d="M 755.826,306.256C 760.576,307.146 763.99,309.171 766.068,312.33C 768.145,315.49 768.729,319.498 767.82,324.353C 766.902,329.255 764.86,332.805 761.695,335.003C 758.53,337.201 754.509,337.844 749.634,336.931L 742.016,335.504L 739.412,349.413L 730.939,347.826L 739.303,303.162L 747.776,304.749L 755.826,306.256 Z M 751.467,329.532C 755.563,330.299 758.096,328.091 759.066,322.907C 760.068,317.56 758.376,314.476 753.992,313.655L 746.375,312.229L 743.417,328.024L 751.467,329.532 Z "/>
		<path fill="#F7CD33" fill-opacity="1" stroke-width="1.59987" stroke-linejoin="round" stroke="#000000" stroke-opacity="1" d="M 811.341,317.925L 801.477,362.281L 793.052,360.408L 797.236,341.597L 780.641,337.907L 776.458,356.717L 768.043,354.846L 777.908,310.49L 786.323,312.361L 782.293,330.478L 798.888,334.169L 802.917,316.052L 811.341,317.925 Z "/>
		<path fill="#F7CD33" fill-opacity="1" stroke-width="1.59987" stroke-linejoin="round" stroke="#000000" stroke-opacity="1" d="M 822.292,320.703L 830.661,322.81L 819.565,366.874L 811.196,364.767L 822.292,320.703 Z "/>
		<path fill="#F7CD33" fill-opacity="1" stroke-width="1.59987" stroke-linejoin="round" stroke="#000000" stroke-opacity="1" d="M 875.735,335.186L 863.37,378.911L 855.374,376.65L 845.554,342.249L 837.274,371.531L 829.094,369.218L 841.46,325.493L 849.456,327.754L 859.153,362.587L 867.556,332.873L 875.735,335.186 Z "/>
	</g>
	<path fill="#C49F18" fill-opacity="1" stroke-width="0.998317" stroke-linejoin="round" stroke="#000000" stroke-opacity="1" d="M 380.128,181.015L 401.246,176.748C 401.246,176.748 413.405,224.104 422.151,237.757C 422.151,237.757 395.913,212.585 380.128,181.015 Z "/>
	<g>
		<filter id="Filter_DropShadow2_" filterUnits="userSpaceOnUse">
			<feGaussianBlur in="SourceAlpha" stdDeviation="0.5" result="blur"/>
			<feOffset dx="1.73257" dy="-9.82587" in="blur" result="offsetBlurredAlpha"/>
			<feMerge>
				<feMergeNode in="offsetBlurredAlpha"/>
				<feMergeNode in="SourceGraphic"/>
			</feMerge>
		</filter>
		<path fill="#D5B100" fill-opacity="1" stroke-width="1.59987" stroke-linejoin="round" stroke="#000000" stroke-opacity="1" filter="url(#Filter_DropShadow2_)" d="M 136.798,438.459L 163.861,427.301C 171.185,424.282 177.107,422.66 181.627,422.437C 186.148,422.214 189.942,423.017 193.011,424.848C 196.08,426.678 198.742,429.33 200.995,432.805C 203.248,436.28 206.003,441.966 209.258,449.861L 213.79,460.853C 217.107,468.899 218.877,475.034 219.1,479.258C 219.323,483.482 218.101,487.296 215.434,490.701C 212.767,494.105 208.627,496.964 203.015,499.277L 196.133,502.115L 217.275,553.394L 188.991,565.055L 136.798,438.459 Z M 173.671,447.63L 187.514,481.207C 188.138,481.008 188.667,480.819 189.102,480.64C 191.052,479.836 192.084,478.507 192.198,476.654C 192.312,474.8 191.361,471.428 189.345,466.537L 184.875,455.695C 183.017,451.188 181.372,448.434 179.941,447.432C 178.511,446.43 176.42,446.496 173.671,447.63 Z "/>
		<filter id="Filter_DropShadow3_" filterUnits="userSpaceOnUse">
			<feGaussianBlur in="SourceAlpha" stdDeviation="0.5" result="blur"/>
			<feOffset dx="1.73257" dy="-9.82587" in="blur" result="offsetBlurredAlpha"/>
			<feMerge>
				<feMergeNode in="offsetBlurredAlpha"/>
				<feMergeNode in="SourceGraphic"/>
			</feMerge>
		</filter>
		<path fill="#D5B100" fill-opacity="1" stroke-width="1.59987" stroke-linejoin="round" stroke="#000000" stroke-opacity="1" filter="url(#Filter_DropShadow3_)" d="M 312.034,398.684L 335.082,512.828L 305.799,521.859C 298.386,505.359 289.838,486.316 280.157,464.728C 282.014,475.235 285.64,495.796 291.037,526.411L 261.92,535.391L 216.62,428.11L 240.179,420.844L 255.291,458.343L 270.457,496.018C 264.941,475.736 258.879,449.435 252.271,417.115L 276.033,409.787C 277.282,412.967 281.948,424.87 290.029,445.496L 306.661,487.922C 299.566,459.734 293.504,432.409 288.475,405.95L 312.034,398.684 Z "/>
		<filter id="Filter_DropShadow4_" filterUnits="userSpaceOnUse">
			<feGaussianBlur in="SourceAlpha" stdDeviation="0.5" result="blur"/>
			<feOffset dx="1.73257" dy="-9.82587" in="blur" result="offsetBlurredAlpha"/>
			<feMerge>
				<feMergeNode in="offsetBlurredAlpha"/>
				<feMergeNode in="SourceGraphic"/>
			</feMerge>
		</filter>
		<path fill="#D5B100" fill-opacity="1" stroke-width="1.59987" stroke-linejoin="round" stroke="#000000" stroke-opacity="1" filter="url(#Filter_DropShadow4_)" d="M 370.906,386.784L 408.607,497.299L 382.957,502.616L 377.507,482.776L 368.605,484.621L 371.49,504.993L 345.84,510.309L 335.298,394.165L 370.906,386.784 Z M 372.358,462.873C 368.73,449.988 364.166,433.787 358.664,414.27C 361.212,437.38 363.061,454.144 364.211,464.562L 372.358,462.873 Z "/>
		<filter id="Filter_DropShadow5_" filterUnits="userSpaceOnUse">
			<feGaussianBlur in="SourceAlpha" stdDeviation="0.5" result="blur"/>
			<feOffset dx="1.73257" dy="-9.82587" in="blur" result="offsetBlurredAlpha"/>
			<feMerge>
				<feMergeNode in="offsetBlurredAlpha"/>
				<feMergeNode in="SourceGraphic"/>
			</feMerge>
		</filter>
		<path fill="#D5B100" fill-opacity="1" stroke-width="1.59987" stroke-linejoin="round" stroke="#000000" stroke-opacity="1" filter="url(#Filter_DropShadow5_)" d="M 575.534,362.868L 594.891,364.64C 607.809,365.822 616.496,367.21 620.953,368.805C 625.409,370.399 628.859,373.739 631.301,378.825C 633.744,383.91 634.481,391.744 633.513,402.325C 632.63,411.968 631.02,418.359 628.683,421.497C 626.345,424.635 622.166,426.26 616.144,426.373C 621.406,428.464 624.841,430.94 626.448,433.8C 628.055,436.66 628.984,439.234 629.235,441.522C 629.486,443.81 629.147,450.023 628.219,460.16L 625.19,493.262L 599.962,490.953L 603.798,449.039C 604.415,442.292 604.373,438.073 603.67,436.382C 602.967,434.692 600.81,433.681 597.2,433.351L 591.995,490.224L 564.112,487.672L 575.534,362.868 Z M 601.538,385.957L 598.935,414.394C 601.881,414.663 603.993,414.338 605.269,413.418C 606.546,412.497 607.442,409.223 607.957,403.595L 608.601,396.56C 608.971,392.512 608.644,389.802 607.619,388.431C 606.594,387.059 604.567,386.235 601.538,385.957 Z "/>
		<filter id="Filter_DropShadow6_" filterUnits="userSpaceOnUse">
			<feGaussianBlur in="SourceAlpha" stdDeviation="0.5" result="blur"/>
			<feOffset dx="1.73257" dy="-9.82587" in="blur" result="offsetBlurredAlpha"/>
			<feMerge>
				<feMergeNode in="offsetBlurredAlpha"/>
				<feMergeNode in="SourceGraphic"/>
			</feMerge>
		</filter>
		<path fill="#D5B100" fill-opacity="1" stroke-width="1.59987" stroke-linejoin="round" stroke="#000000" stroke-opacity="1" filter="url(#Filter_DropShadow6_)" d="M 682.674,414.612L 677.758,502.886L 658.245,499.335L 660.053,483.862L 653.281,482.63L 649.522,497.748L 630.009,494.197L 655.586,409.683L 682.674,414.612 Z M 662.09,468.431C 663.202,458.357 664.597,445.69 666.278,430.429C 661.505,447.373 658.043,459.664 655.892,467.303L 662.09,468.431 Z "/>
		<filter id="Filter_DropShadow7_" filterUnits="userSpaceOnUse">
			<feGaussianBlur in="SourceAlpha" stdDeviation="0.5" result="blur"/>
			<feOffset dx="1.73257" dy="-9.82587" in="blur" result="offsetBlurredAlpha"/>
			<feMerge>
				<feMergeNode in="offsetBlurredAlpha"/>
				<feMergeNode in="SourceGraphic"/>
			</feMerge>
		</filter>
		<path fill="#D5B100" fill-opacity="1" stroke-width="1.59987" stroke-linejoin="round" stroke="#000000" stroke-opacity="1" filter="url(#Filter_DropShadow7_)" d="M 744.504,429.533L 722.507,514.458L 706.244,510.245L 707.207,469.306L 697.209,507.905L 680.945,503.692L 702.943,418.767L 717.399,422.512L 718.335,463.567L 728.241,425.32L 744.504,429.533 Z "/>
		<filter id="Filter_DropShadow8_" filterUnits="userSpaceOnUse">
			<feGaussianBlur in="SourceAlpha" stdDeviation="0.5" result="blur"/>
			<feOffset dx="1.73257" dy="-9.82587" in="blur" result="offsetBlurredAlpha"/>
			<feMerge>
				<feMergeNode in="offsetBlurredAlpha"/>
				<feMergeNode in="SourceGraphic"/>
			</feMerge>
		</filter>
		<path fill="#D5B100" fill-opacity="1" stroke-width="1.59987" stroke-linejoin="round" stroke="#000000" stroke-opacity="1" filter="url(#Filter_DropShadow8_)" d="M 789.146,478.24L 770.599,471.902L 773.118,464.529C 774.708,459.877 775.574,456.922 775.717,455.663C 775.86,454.403 775.443,453.607 774.468,453.274C 773.622,452.985 772.874,453.294 772.224,454.203C 771.575,455.112 770.532,457.668 769.095,461.871L 755.623,501.293C 754.363,504.982 753.699,507.465 753.632,508.744C 753.564,510.023 754.028,510.833 755.021,511.172C 756.116,511.546 757.079,511.157 757.909,510.005C 758.74,508.852 759.789,506.42 761.057,502.71L 764.3,493.22L 760.767,492.012L 765.077,479.403L 786.273,486.646L 771.191,530.78L 760.027,526.965L 760.421,520.444C 758.319,522.598 756.159,523.883 753.941,524.299C 751.724,524.714 749.35,524.49 746.82,523.625C 743.812,522.597 741.291,520.767 739.257,518.135C 737.223,515.502 735.963,512.675 735.474,509.654C 734.986,506.633 735.052,503.66 735.671,500.736C 736.29,497.812 737.559,493.543 739.478,487.927L 747.771,463.66C 750.438,455.856 752.729,450.31 754.643,447.022C 756.558,443.734 759.695,441.19 764.055,439.392C 768.415,437.593 773.253,437.603 778.571,439.42C 783.805,441.209 787.715,443.96 790.299,447.673C 792.883,451.386 794.103,455.164 793.961,459.009C 793.818,462.854 792.612,468.098 790.341,474.742L 789.146,478.24 Z "/>
		<filter id="Filter_DropShadow9_" filterUnits="userSpaceOnUse">
			<feGaussianBlur in="SourceAlpha" stdDeviation="0.5" result="blur"/>
			<feOffset dx="1.73257" dy="-9.82587" in="blur" result="offsetBlurredAlpha"/>
			<feMerge>
				<feMergeNode in="offsetBlurredAlpha"/>
				<feMergeNode in="SourceGraphic"/>
			</feMerge>
		</filter>
		<path fill="#D5B100" fill-opacity="1" stroke-width="1.59987" stroke-linejoin="round" stroke="#000000" stroke-opacity="1" filter="url(#Filter_DropShadow9_)" d="M 812.033,452.698L 842.16,465.326L 835.292,481.712L 823.241,476.661L 816.801,492.023L 827.991,496.714L 821.552,512.076L 810.362,507.385L 803.064,524.796L 815.976,530.208L 809.107,546.594L 778.119,533.605L 812.033,452.698 Z "/>
		<filter id="Filter_DropShadow10_" filterUnits="userSpaceOnUse">
			<feGaussianBlur in="SourceAlpha" stdDeviation="0.5" result="blur"/>
			<feOffset dx="1.73257" dy="-9.82587" in="blur" result="offsetBlurredAlpha"/>
			<feMerge>
				<feMergeNode in="offsetBlurredAlpha"/>
				<feMergeNode in="SourceGraphic"/>
			</feMerge>
		</filter>
		<path fill="#D5B100" fill-opacity="1" stroke-width="1.59987" stroke-linejoin="round" stroke="#000000" stroke-opacity="1" filter="url(#Filter_DropShadow10_)" d="M 853.163,470.164L 865.359,476.196C 873.499,480.222 878.823,483.317 881.332,485.481C 883.841,487.644 885.253,490.695 885.567,494.631C 885.882,498.568 884.39,503.87 881.092,510.537C 878.087,516.612 875.426,520.381 873.109,521.842C 870.792,523.302 867.653,523.311 863.692,521.868C 866.602,524.559 868.221,527.041 868.551,529.314C 868.88,531.587 868.838,533.502 868.426,535.06C 868.013,536.617 866.228,540.59 863.069,546.977L 852.753,567.833L 836.857,559.971L 849.919,533.562C 852.022,529.311 853.057,526.545 853.023,525.264C 852.99,523.983 851.836,522.779 849.562,521.654L 831.838,557.488L 814.269,548.798L 853.163,470.164 Z M 864.332,491.793L 855.47,509.71C 857.326,510.628 858.787,510.947 859.852,510.668C 860.918,510.388 862.328,508.476 864.082,504.93L 866.274,500.497C 867.536,497.946 868.004,496.094 867.68,494.94C 867.356,493.786 866.24,492.737 864.332,491.793 Z "/>
		<filter id="Filter_DropShadow11_" filterUnits="userSpaceOnUse">
			<feGaussianBlur in="SourceAlpha" stdDeviation="0.5" result="blur"/>
			<feOffset dx="1.73257" dy="-9.82587" in="blur" result="offsetBlurredAlpha"/>
			<feMerge>
				<feMergeNode in="offsetBlurredAlpha"/>
				<feMergeNode in="SourceGraphic"/>
			</feMerge>
		</filter>
		<path fill="#D5B100" fill-opacity="1" stroke-width="1.59987" stroke-linejoin="round" stroke="#000000" stroke-opacity="1" filter="url(#Filter_DropShadow11_)" d="M 925.532,539.275L 910.204,530.357L 913.424,524.823C 914.925,522.243 915.653,520.469 915.61,519.5C 915.566,518.531 915.015,517.739 913.956,517.122C 912.805,516.453 911.653,516.425 910.503,517.04C 909.352,517.656 908.209,518.938 907.075,520.888C 905.615,523.397 904.813,525.461 904.671,527.077C 904.496,528.675 905.242,531.143 906.909,534.482C 911.668,544.089 914.092,551.127 914.18,555.595C 914.267,560.048 912.178,565.939 907.914,573.268C 904.813,578.597 901.989,582.21 899.44,584.106C 896.891,586.002 893.576,586.907 889.493,586.82C 885.409,586.733 881.318,585.496 877.217,583.11C 872.713,580.49 869.452,577.254 867.435,573.404C 865.417,569.554 864.815,565.794 865.628,562.125C 866.441,558.456 868.506,553.772 871.821,548.073L 874.709,543.109L 890.037,552.027L 884.54,561.475C 882.842,564.395 882.003,566.416 882.024,567.539C 882.046,568.663 882.699,569.598 883.985,570.346C 885.279,571.099 886.534,571.15 887.751,570.5C 888.967,569.849 890.16,568.519 891.33,566.51C 893.895,562.1 895.028,558.905 894.729,556.925C 894.411,554.92 892.998,551.066 890.489,545.364C 887.989,539.627 886.451,535.624 885.876,533.356C 885.301,531.087 885.293,528.403 885.854,525.303C 886.414,522.203 887.849,518.669 890.159,514.699C 893.492,508.97 896.562,505.153 899.37,503.246C 902.177,501.34 905.43,500.462 909.127,500.613C 912.825,500.763 916.674,502.002 920.674,504.329C 925.052,506.876 928.312,509.857 930.453,513.271C 932.595,516.685 933.452,519.911 933.024,522.947C 932.596,525.983 930.665,530.451 927.233,536.35L 925.532,539.275 Z "/>
	</g>
	<path fill="#DDB31C" fill-opacity="1" stroke-linejoin="round" stroke="#000000" stroke-opacity="1" d="M 376.603,4.69824C 376.573,4.02112 419.797,83.4078 531.142,169.796C 531.142,169.796 508.105,229.308 501.386,335.854C 501.386,335.854 485.068,322.416 476.429,306.098C 476.429,306.098 473.55,356.971 491.787,433.761C 491.787,433.761 490.194,433.124 474.195,422.245C 474.195,422.245 491.047,499.251 510.672,550.874C 510.672,550.874 425.773,424.164 421.506,356.33C 421.506,356.33 424.493,363.156 445.824,381.075C 445.824,381.075 397.615,283.376 380.123,180.984C 380.123,180.984 398.468,215.115 421.933,238.153C 421.933,238.153 383.323,158.907 376.603,4.69824 Z "/>
	<path fill="#C49F18" fill-opacity="1" stroke-width="0.998317" stroke-linejoin="round" stroke="#000000" stroke-opacity="1" d="M 553.236,313.484C 553.839,312.631 536.597,345.481 532.438,417.155C 532.437,417.155 512.919,424.195 491.801,433.154C 491.801,433.154 473.562,361.48 476.442,306.125C 476.442,306.125 479.322,314.444 500.44,334.922C 500.44,334.922 500.76,331.403 553.236,313.484 Z "/>
	<path fill="#C49F18" fill-opacity="1" stroke-width="0.998317" stroke-linejoin="round" stroke="#000000" stroke-opacity="1" d="M 510.306,425.208C 510.253,425.901 506.626,479.55 511.106,550.371C 511.106,550.371 489.774,498.535 474.202,422.808C 474.202,422.808 480.389,426.861 491.694,433.047L 510.306,425.208 Z "/>
	<path fill="#C49F18" fill-opacity="1" stroke-width="0.998317" stroke-linejoin="round" stroke="#000000" stroke-opacity="1" d="M 530.841,169.486C 531.719,168.891 573.078,148.367 656.911,142.608C 656.911,142.608 589.716,229.001 563.478,310.274C 563.478,310.274 514.842,324.353 500.763,334.592C 500.763,334.592 508.443,227.081 530.841,169.486 Z "/>
</svg>
